<svg width="41" height="41" viewBox="0 0 41 41" fill="none" xmlns="http://www.w3.org/2000/svg">
<path d="M40.4303 34.0929L34.6498 39.8271C33.7965 40.7022 32.6655 40.9987 31.564 41C26.6928 40.8541 22.0884 38.4613 18.3079 36.0043C12.1025 31.4899 6.40878 25.8922 2.83529 19.1276C1.46473 16.291 -0.143426 12.6717 0.010222 9.50547C0.0239228 8.31442 0.344884 7.14548 1.18371 6.37775L6.96423 0.600133C8.16457 -0.42087 9.32539 -0.0678598 10.0935 1.12141L14.744 9.9399C15.2335 10.9846 14.9527 12.104 14.2224 12.8505L12.0927 14.9791C11.9612 15.1592 11.8775 15.3642 11.8754 15.5873C12.6921 18.7484 15.1661 21.6621 17.3517 23.6672C19.5372 25.6724 21.8865 28.389 24.9359 29.0321C25.3128 29.1372 25.7745 29.1742 26.0442 28.9235L28.5216 26.4039C29.3756 25.7566 30.6087 25.4403 31.5205 25.9695H31.5639L39.9522 30.9218C41.1836 31.6936 41.312 33.1854 40.4303 34.0929V34.0929Z" fill="black"/>
</svg>
