<svg width="41" height="41" viewBox="0 0 41 41" fill="none" xmlns="http://www.w3.org/2000/svg">
<path d="M40.5879 9.48694L35.7192 5.31861C35.3884 5.08262 35.0286 4.90081 34.6511 4.77878C34.2752 4.64358 33.8838 4.56842 33.4888 4.55556H19.475L21.117 15.9444H33.4888C33.825 15.9444 34.2453 15.8602 34.6491 15.7212C35.053 15.5823 35.4424 15.3909 35.7171 15.1837L40.5859 11.0108C40.8626 10.8035 41 10.5279 41 10.25C41 9.97211 40.8626 9.6965 40.5879 9.48694V9.48694ZM17.425 0H15.375C15.1032 0 14.8424 0.11999 14.6502 0.333573C14.458 0.547156 14.35 0.836837 14.35 1.13889V9.11111H7.5112C7.1709 9.11111 6.7527 9.19539 6.34885 9.33661C5.94295 9.47328 5.5555 9.66233 5.2808 9.87417L0.41205 14.0425C0.1353 14.2498 0 14.5277 0 14.8056C0 15.0812 0.1353 15.3568 0.41205 15.5686L5.2808 19.7415C5.5555 19.9488 5.94295 20.1401 6.34885 20.2768C6.7527 20.4157 7.1709 20.5 7.5112 20.5H14.35V39.8611C14.35 40.1632 14.458 40.4528 14.6502 40.6664C14.8424 40.88 15.1032 41 15.375 41H17.425C17.6968 41 17.9576 40.88 18.1498 40.6664C18.342 40.4528 18.45 40.1632 18.45 39.8611V1.13889C18.45 0.836837 18.342 0.547156 18.1498 0.333573C17.9576 0.11999 17.6968 0 17.425 0V0Z" fill="black"/>
</svg>
