<svg width="41" height="41" viewBox="0 0 41 41" fill="none" xmlns="http://www.w3.org/2000/svg">
<path d="M24.7659 12.8972L26.1832 10.3076H30.09V25.1461V25.3961H30.0977C30.1199 26.1837 30.2529 26.7962 30.5643 27.223C30.9231 27.7149 31.477 27.9083 32.1893 27.9083C33.8059 27.9083 35.0938 26.8699 35.9639 25.0812C36.8323 23.2961 37.308 20.7271 37.308 17.5516C37.308 12.6617 35.5255 9.02157 32.6111 6.60869C29.7034 4.20132 25.6946 3.03624 21.2709 3.03624C16.7072 3.03624 12.339 4.56851 9.10928 7.56077C5.87629 10.5561 3.80089 14.9991 3.80089 20.7844C3.80089 26.3067 5.61543 30.6 8.84848 33.5101C12.0778 36.4168 16.6923 37.9167 22.2446 37.9167C25.9294 37.9167 28.4374 37.5199 32.1591 36.2962L32.8658 39.242C29.17 40.4081 25.2411 40.75 22.1934 40.75C15.0118 40.75 9.53154 38.7744 5.84834 35.3081C2.16689 31.8434 0.25 26.8606 0.25 20.7822C0.25 14.6617 2.4686 9.53282 6.20284 5.9336C9.93796 2.33353 15.2041 0.25 21.3221 0.25C27.7037 0.25 32.5577 2.15839 35.814 5.21117C39.0699 8.26358 40.75 12.4797 40.75 17.1389C40.75 21.1236 40.124 24.5943 38.5482 27.0619C36.9848 29.5101 34.4682 31.0003 30.5984 31.0003C28.8324 31.0003 27.4037 30.6462 26.3852 29.9295C25.376 29.2193 24.7423 28.1342 24.5947 26.6059L24.104 26.5669C23.6559 28.2867 22.8433 29.3826 21.7601 30.0555C20.669 30.7333 19.2739 31.0003 17.63 31.0003C15.468 31.0003 13.4889 30.168 12.0471 28.501C10.6031 26.8316 9.68 24.3036 9.68 20.8849C9.68 17.4308 10.4926 14.6707 12.0031 12.7793C13.5075 10.8956 15.7258 9.84574 18.6059 9.84574C21.661 9.84574 23.5015 11.0419 24.3182 12.8788L24.5234 13.3404L24.7659 12.8972ZM24.2927 18.3726C24.2927 16.8942 23.7384 15.8234 22.9374 15.1253C22.1426 14.4327 21.1205 14.1201 20.1968 14.1201C19.1779 14.1201 18.1053 14.535 17.293 15.547C16.4843 16.5545 15.9514 18.1305 15.9514 20.4252C15.9514 22.254 16.3553 23.7107 17.0952 24.7169C17.8413 25.7317 18.9157 26.2684 20.1968 26.2684C21.0908 26.2684 22.1133 25.9844 22.9164 25.2976C23.7268 24.6046 24.2927 23.5193 24.2927 21.9646V18.3726Z" fill="black" stroke="black" stroke-width="0.5"/>
</svg>
